<svg width="216" height="43" fill="none" xmlns="http://www.w3.org/2000/svg"><path fill-rule="evenodd" clip-rule="evenodd" d="M115.824 36.425c.657.158 1.772.158 2.683.155 7.047.038 11.66-4 11.66-12.513 0-7.664-4.152-11.306-10.845-11.28-1.672 0-2.841.16-3.498.326v23.312zm-7.703-29.003c2.841-.537 6.539-.81 10.387-.823 6.535-.018 10.798 1.076 14.039 3.663 3.548 2.738 5.774 7.176 5.774 13.52 0 6.82-2.38 11.528-5.617 14.45-3.602 3.13-9.126 4.626-15.818 4.648-3.998.01-6.889-.255-8.765-.512V7.422zM164.576 34.069c0 3.392.096 6.135.2 8.3l-6.685.021-.358-3.646h-.149c-.966 1.587-3.299 4.238-7.758 4.256-5.067.004-8.715-3.26-8.715-11.243V16.584l7.704-.023v13.903c0 3.758 1.165 6.028 3.898 6.02 2.133-.009 3.398-1.545 3.852-2.805.203-.492.307-1.065.307-1.751v-15.39l7.704-.022v17.553zM180.373 37.15c3.045-.011 4.917-3.132 4.917-7.785 0-3.812-1.422-7.72-4.917-7.712-3.652.013-5.07 3.929-5.07 7.783 0 4.397 1.776 7.717 5.02 7.703l.05.01zm-.154 5.763c-7.246.024-12.821-4.94-12.821-13.293 0-8.357 5.271-13.709 13.278-13.732 7.55-.013 12.621 5.416 12.621 13.24 0 9.41-6.439 13.763-13.025 13.785h-.053zM215.95 41.596c-1.373.695-3.952 1.225-6.892 1.236-8.004.024-13.128-5.095-13.128-13.231 0-7.57 4.97-13.767 14.189-13.794 2.033-.005 4.259.362 5.881.992l-1.218 5.975c-.912-.42-2.284-.783-4.302-.78-4.06.014-6.701 3.03-6.643 7.257 0 4.766 3.037 7.295 6.797 7.286 1.818-.011 3.236-.326 4.405-.86l.911 5.92z" fill="#FFB71B"/><path fill-rule="evenodd" clip-rule="evenodd" d="M29.95 9.627h.469c0 .513.307 1.163.915 1.93v.486c-6.043 5.995-10.026 12.25-11.967 18.778L12.9 42.864c-3.683.009-5.528-1.748-5.528-5.265C4.675 31.873 2.214 25.305 0 17.897h.465L0 16.951c.304-.64.465-1.123.465-1.45l1.38-.003c3.686-.013 5.528 2.221 5.528 6.701 1.169 2.043 2.245 4.923 3.237 8.64h.438c.315 0 2.618-4.163 6.908-12.497 1.353-2.489 2.895-4.251 4.617-5.322 0-1.356 2.456-2.487 7.377-3.393z" fill="#fff"/><path fill-rule="evenodd" clip-rule="evenodd" d="M38.788 0c3.567-.007 5.87 1.588 6.904 4.795v.46c0 2.817-1.995 4.434-5.993 4.834h-.465c-2.457-1.158-3.683-3.244-3.683-6.246 0-1.442 1.076-2.722 3.237-3.843zm-3.702 12.523c4.305 1.26 6.462 3.328 6.462 6.212-1.842 6.011-2.76 9.71-2.76 11.085 0 1.367 1.38 3.452 4.147 6.233v2.891c-1.453 1.926-3.148 2.89-5.086 2.898-5.528-2.34-8.295-6.34-8.295-12.007h.472l-.472-.95c1.238-10.59 2.775-15.888 4.62-15.897l.912-.465z" fill="#F9BA14"/><path fill-rule="evenodd" clip-rule="evenodd" d="M77.948 9.494h.465c0 .515.307 1.158.915 1.932v.478c-6.04 6-10.033 12.258-11.97 18.779L60.89 42.727c-3.679.011-5.524-1.743-5.524-5.255-2.698-5.733-5.155-12.298-7.377-19.706h.465l-.465-.952c.311-.635.465-1.117.465-1.445l1.384-.008c3.687-.005 5.528 2.229 5.528 6.71 1.165 2.04 2.245 4.924 3.225 8.641l.45-.003c.315-.002 2.618-4.17 6.908-12.506 1.353-2.477 2.89-4.243 4.613-5.314 0-1.358 2.46-2.485 7.385-3.395zM87.22 28.261l.47 3.375c-.308.616-.47 1.1-.47 1.442 2.126 0 4.768-2.11 7.927-6.308v-.941c-.461-2.903-1.88-4.18-4.247-3.83-2.038.003-3.268 2.093-3.68 6.262zm2.4-14.937l1.845-.006c7.995 1.714 11.997 5.548 11.997 11.506.288-.007.442.803.442 2.42 0 6.533-4.763 11.522-14.285 14.939-.526.31-1.138.465-1.83.47-5.427.016-8.964-3.02-10.613-9.109v-4.323c2.733-10.583 6.88-15.882 12.443-15.897z" fill="#fff"/></svg>